<?xml version="1.0" encoding="utf-8"?>
<!-- Generator: Adobe Illustrator 30.1.0, SVG Export Plug-In . SVG Version: 9.03 Build 0)  -->
<svg version="1.0" xmlns="http://www.w3.org/2000/svg" xmlns:xlink="http://www.w3.org/1999/xlink" x="0px" y="0px"
	 viewBox="0 0 500 218.18" style="enable-background:new 0 0 500 218.18;" xml:space="preserve">
<style type="text/css">
	.st0{fill:#006838;}
	.st1{fill:#009F56;}
	.st2{fill:#8CC342;}
	.st3{fill:#FFFFFF;}
</style>
<g id="Layer_1">
	<g>
		<path class="st0" d="M191.43,41.99H112.9c-3.04,0-6.04,0.22-9.04,0.65c-2.99,0.44-5.94,1.09-8.85,1.96
			c-2.9,0.87-5.72,1.94-8.45,3.23c-2.75,1.28-5.39,2.76-7.92,4.43c-2.53,1.67-4.93,3.5-7.18,5.53c-2.26,2.01-4.35,4.2-6.29,6.52
			c-1.95,2.32-3.71,4.77-5.3,7.35c-1.58,2.59-2.96,5.27-4.14,8.06L44.9,105.03l-24.45,57.27c-1.82-2.82-3.5-5.68-5.04-8.65
			c-1.54-2.98-2.94-6-4.2-9.11c-1.24-3.09-2.35-6.25-3.3-9.46c-0.95-3.21-1.74-6.45-2.37-9.74c-0.64-3.27-1.12-6.58-1.44-9.9
			c-0.32-3.34-0.49-6.67-0.49-10.01c0-3.35,0.15-6.68,0.47-10.01c0.32-3.32,0.8-6.63,1.42-9.92C6.16,82.24,6.95,79,7.89,75.8
			c0.95-3.21,2.05-6.36,3.3-9.47c1.26-3.1,2.64-6.13,4.18-9.1c1.54-2.98,3.22-5.86,5.03-8.67c1.82-2.8,3.77-5.52,5.85-8.13
			c2.08-2.62,4.27-5.13,6.58-7.54c2.32-2.41,4.75-4.71,7.29-6.88c2.54-2.18,5.17-4.23,7.9-6.16c2.75-1.92,5.56-3.71,8.47-5.36
			c2.9-1.66,5.88-3.17,8.93-4.53c3.05-1.37,6.16-2.59,9.33-3.66c3.17-1.08,6.38-1.99,9.64-2.76c3.26-0.76,6.54-1.36,9.85-1.81
			c3.31-0.45,6.63-0.73,9.98-0.86c3.34-0.13,6.67-0.1,10.01,0.09c3.34,0.19,6.66,0.54,9.97,1.05c3.3,0.51,6.57,1.18,9.81,2
			c3.23,0.82,6.43,1.8,9.58,2.93c3.14,1.14,6.22,2.41,9.25,3.84c3.03,1.44,5.98,3,8.85,4.71c2.87,1.71,5.66,3.54,8.35,5.53
			c2.69,1.98,5.3,4.07,7.79,6.29c2.5,2.23,4.88,4.57,7.15,7.02C187.25,36.78,189.41,39.33,191.43,41.99z"/>
		<path class="st1" d="M216.72,59.63c-2.13,8.39-6.99,16.32-13.52,22.55c-8.42,8.02-19.6,13.25-31.37,13.1h-50.01
			c-1.83,0-3.62,0.27-5.39,0.8c-1.76,0.53-3.4,1.3-4.93,2.31c-1.53,1.01-2.89,2.22-4.05,3.63c-1.18,1.4-2.13,2.95-2.85,4.63
			l-2.9,6.8H85.04l8.48-19.9c0.72-1.68,1.67-3.23,2.84-4.63c1.18-1.41,2.53-2.63,4.07-3.63c1.53-1.01,3.17-1.78,4.93-2.31
			c1.76-0.53,3.55-0.8,5.39-0.8h63.76c0.26,0,0.53-0.01,0.8-0.01c1.81-0.03,3.62-0.14,5.41-0.36c2.07-0.26,4.11-0.63,6.13-1.14
			c2.01-0.5,3.99-1.13,5.93-1.87c1.95-0.74,3.84-1.62,5.67-2.59c1.83-0.98,3.59-2.07,5.3-3.27c1.71-1.19,3.32-2.49,4.86-3.89
			c0.04-0.04,0.09-0.08,0.13-0.13c0.72-0.64,1.42-1.32,2.12-2.04c0.72-0.74,1.42-1.51,2.1-2.3c0.68-0.78,1.33-1.59,1.96-2.41
			c0.31-0.41,0.62-0.83,0.92-1.26C216.14,60.49,216.44,60.07,216.72,59.63z"/>
		<path class="st1" d="M187.53,113.45c0,25.31-22.58,43.25-42.45,43.25H96.52c-1.99,0-3.91,0.28-5.81,0.85
			c-1.89,0.56-3.66,1.4-5.3,2.49c-1.66,1.08-3.12,2.39-4.37,3.91c-1.27,1.5-2.28,3.17-3.07,4.99l-13.46,31.51
			c-2.35,4.53-12.32,9.84-20.78,9.75l23.2-54.36c0.77-1.82,1.8-3.49,3.07-4.99c1.26-1.53,2.72-2.84,4.36-3.91
			c1.66-1.09,3.43-1.92,5.31-2.49c1.9-0.56,3.82-0.86,5.8-0.86h56.43c2.42,0,4.82-0.17,7.22-0.53c2.39-0.35,4.75-0.87,7.06-1.57
			c2.32-0.69,4.57-1.55,6.76-2.58c2.19-1.03,4.3-2.21,6.31-3.54c2.01-1.33,3.93-2.81,5.73-4.41c1.8-1.62,3.48-3.35,5.03-5.21
			c1.54-1.85,2.95-3.81,4.21-5.88C185.48,117.81,186.58,115.67,187.53,113.45z"/>
		<path class="st0" d="M104.23,187.04c-0.28,1.61-0.48,3.14-0.6,4.6c-0.1,1.45-0.16,2.77-0.16,3.92c0,0.66,0.03,1.4,0.1,2.21
			c0.06,0.8,0.23,1.54,0.49,2.23c0.26,0.69,0.62,1.29,1.09,1.77c0.47,0.47,1.14,0.7,2.03,0.7c0.66,0,1.4-0.21,2.23-0.65
			c0.84-0.45,1.69-1.07,2.52-1.87c0.83-0.81,1.62-1.8,2.39-2.96c0.78-1.16,1.38-2.47,1.82-3.92h17.91l-2.83,11.68
			c-1.45,0.95-3.14,1.76-5.04,2.41c-1.89,0.64-3.89,1.17-6,1.58c-2.12,0.4-4.27,0.68-6.46,0.86c-2.18,0.19-4.25,0.29-6.21,0.29
			c-3.65,0-7.05-0.33-10.18-0.99c-3.14-0.66-5.87-1.78-8.2-3.38c-2.32-1.61-4.15-3.74-5.5-6.39c-1.35-2.66-2.03-5.97-2.03-9.92
			c0-3.56,0.56-7.05,1.69-10.46c1.14-3.43,3.04-6.47,5.69-9.14c2.66-2.66,6.24-4.79,10.72-6.39c4.48-1.61,10.07-2.41,16.77-2.41
			c7.27,0,12.73,1.14,16.41,3.4c3.69,2.25,5.53,5.78,5.53,10.59c0,1.97-0.3,4.12-0.88,6.41c-0.57,2.28-1.44,4.23-2.6,5.82H104.23z
			 M118.77,174.04c0-2.25-0.36-3.77-1.09-4.57c-0.73-0.81-1.6-1.22-2.62-1.22c-1.16,0-2.23,0.39-3.22,1.17
			c-0.99,0.77-1.89,1.78-2.7,3.06c-0.8,1.27-1.53,2.72-2.18,4.36c-0.64,1.63-1.19,3.36-1.64,5.19h12.46c0.16-0.88,0.3-1.8,0.44-2.75
			c0.14-0.79,0.26-1.66,0.36-2.6C118.7,175.74,118.77,174.85,118.77,174.04z"/>
		<path class="st0" d="M149.03,162.04h17.81l1.64,8.18h0.75c1.67-2.61,3.82-4.83,6.44-6.65c2.63-1.83,6.09-2.75,10.39-2.75
			c0.29,0,0.75,0.02,1.38,0.05c0.62,0.04,1.31,0.15,2.08,0.34c0.76,0.19,1.56,0.45,2.39,0.78c0.84,0.31,1.67,0.77,2.47,1.35
			l-4.8,22.51h-11.92c-0.14-4.52-0.54-7.67-1.19-9.45c-0.66-1.78-1.71-2.67-3.17-2.67c-0.73,0-1.52,0.17-2.36,0.49
			c-0.83,0.33-1.68,1.04-2.54,2.13l-7.01,32.66h-22.28L149.03,162.04z"/>
		<path class="st0" d="M222.23,169.02c1.52-1.45,3.23-2.8,5.14-4.05c1.66-1.02,3.66-1.96,6-2.83c2.34-0.88,4.96-1.32,7.87-1.32
			c3.49,0,6.1,0.8,7.81,2.41c1.71,1.6,2.67,3.56,2.88,5.89h0.68c1.66-1.52,3.48-2.91,5.45-4.15c1.67-1.02,3.64-1.96,5.89-2.83
			c2.27-0.88,4.67-1.32,7.22-1.32c3.79,0,6.86,1.04,9.22,3.12c2.37,2.08,3.56,4.75,3.56,8.02c0,1.68-0.3,3.91-0.88,6.67
			c-0.57,2.77-1.22,5.79-1.95,9.06l-4.6,21.32H255l5.89-28.51c0.22-1.09,0.44-2.14,0.65-3.17c0.22-1.02,0.34-1.86,0.34-2.52
			c0-1.02-0.3-1.88-0.88-2.57c-0.57-0.69-1.4-1.04-2.49-1.04c-1.39,0-2.69,0.49-3.89,1.48c-1.19,0.99-2.12,1.81-2.78,2.47
			l-7.09,33.86h-20.43l6-28.51c0.16-0.95,0.34-1.92,0.55-2.91c0.22-0.99,0.34-1.88,0.34-2.67c0-1.09-0.28-1.98-0.83-2.67
			c-0.54-0.69-1.35-1.04-2.44-1.04c-1.32,0-2.58,0.48-3.79,1.43c-1.19,0.93-2.12,1.73-2.78,2.39l-7.22,33.99h-22.28l9.94-46.97
			h17.81l1.95,6.98H222.23z"/>
		<path class="st0" d="M308.09,209.01h-22.17l9.94-46.97h22.38L308.09,209.01z M321.1,147.71c0,1.68-0.35,3.14-1.04,4.39
			c-0.69,1.23-1.61,2.28-2.75,3.17c-1.13,0.87-2.41,1.53-3.87,1.97c-1.45,0.43-2.95,0.65-4.47,0.65c-2.93,0-5.37-0.69-7.35-2.08
			c-1.96-1.38-2.93-3.57-2.93-6.57c0-1.59,0.32-3.02,0.99-4.31c0.66-1.28,1.54-2.34,2.67-3.17c1.12-0.83,2.43-1.46,3.92-1.9
			c1.51-0.45,3.06-0.68,4.67-0.68c2.84,0,5.23,0.69,7.19,2.08C320.11,142.66,321.1,144.8,321.1,147.71z"/>
		<path class="st0" d="M327.87,162.04h17.81l1.64,8.18h0.75c1.67-2.61,3.82-4.83,6.44-6.65c2.63-1.83,6.09-2.75,10.39-2.75
			c0.29,0,0.75,0.02,1.38,0.05c0.62,0.04,1.31,0.15,2.08,0.34c0.76,0.19,1.56,0.45,2.39,0.78c0.84,0.31,1.67,0.77,2.47,1.35
			l-4.8,22.51h-11.92c-0.14-4.52-0.54-7.67-1.19-9.45c-0.66-1.78-1.71-2.67-3.17-2.67c-0.73,0-1.52,0.17-2.36,0.49
			c-0.83,0.33-1.68,1.04-2.54,2.13l-7.01,32.66h-22.28L327.87,162.04z"/>
		<path class="st0" d="M395.59,187.04c-0.28,1.61-0.48,3.14-0.6,4.6c-0.1,1.45-0.16,2.77-0.16,3.92c0,0.66,0.03,1.4,0.1,2.21
			c0.06,0.8,0.23,1.54,0.49,2.23c0.26,0.69,0.62,1.29,1.09,1.77c0.47,0.47,1.14,0.7,2.03,0.7c0.66,0,1.4-0.21,2.23-0.65
			c0.84-0.45,1.69-1.07,2.52-1.87c0.83-0.81,1.62-1.8,2.39-2.96c0.78-1.16,1.38-2.47,1.82-3.92h17.91l-2.83,11.68
			c-1.45,0.95-3.14,1.76-5.04,2.41c-1.89,0.64-3.89,1.17-6,1.58c-2.12,0.4-4.27,0.68-6.46,0.86c-2.18,0.19-4.25,0.29-6.21,0.29
			c-3.65,0-7.05-0.33-10.18-0.99c-3.14-0.66-5.87-1.78-8.2-3.38c-2.32-1.61-4.15-3.74-5.5-6.39c-1.35-2.66-2.03-5.97-2.03-9.92
			c0-3.56,0.56-7.05,1.69-10.46c1.14-3.43,3.04-6.47,5.69-9.14c2.66-2.66,6.24-4.79,10.72-6.39c4.48-1.61,10.07-2.41,16.77-2.41
			c7.27,0,12.73,1.14,16.41,3.4c3.69,2.25,5.53,5.78,5.53,10.59c0,1.97-0.3,4.12-0.88,6.41c-0.57,2.28-1.44,4.23-2.6,5.82H395.59z
			 M410.13,174.04c0-2.25-0.36-3.77-1.09-4.57c-0.73-0.81-1.6-1.22-2.62-1.22c-1.16,0-2.23,0.39-3.22,1.17
			c-0.99,0.77-1.89,1.78-2.7,3.06c-0.8,1.27-1.53,2.72-2.18,4.36c-0.64,1.63-1.19,3.36-1.64,5.19h12.46c0.16-0.88,0.3-1.8,0.44-2.75
			c0.14-0.79,0.26-1.66,0.36-2.6C410.07,175.74,410.13,174.85,410.13,174.04z"/>
		<path class="st0" d="M471.42,179.54l-9.2-8.54l-0.68-0.66c-0.09-0.09-0.21-0.13-0.33-0.12c-0.12-0.01-0.23,0.03-0.33,0.12
			l-0.68,0.66l-3.8,3.52v-0.75c0-0.16-0.12-0.28-0.27-0.28h-2.39c-0.15,0-0.27,0.12-0.27,0.28v3.47l-2.46,2.28
			c-0.21,0.19-0.33,0.47-0.33,0.75v1.02c0,0.18,0.14,0.31,0.32,0.31h2.47v6.35c0,1.01,0.82,1.84,1.84,1.84h11.79
			c1.02,0,1.84-0.82,1.84-1.84v-6.35h2.47c0.18,0,0.31-0.14,0.31-0.31v-1.02C471.75,180.01,471.63,179.73,471.42,179.54z
			 M466.96,187.2c0,0.4-0.32,0.71-0.71,0.71H456.2c-0.39,0-0.71-0.32-0.71-0.71v-3.65c1.29,1.75,3.33,2.8,5.5,2.8H461
			c0.27-0.01,0.36-0.21,0.38-0.28c0.05-0.13,0.03-0.31-0.12-0.44l-0.56-0.42c-0.12-0.09-0.16-0.27-0.07-0.39
			c0.09-0.14,0.27-0.17,0.4-0.07l0.55,0.42c0.01,0.01,0.02,0.01,0.03,0.02l0.95,0.71c0.2,0.15,0.47,0.16,0.69,0.01
			c0.1-0.08,0.18-0.19,0.21-0.32c0.06-0.23-0.03-0.46-0.21-0.6l-1.14-0.85c-0.11-0.08-0.16-0.23-0.09-0.36
			c0.08-0.16,0.28-0.21,0.42-0.1l1.14,0.86l0.64,0.48c0.2,0.15,0.48,0.18,0.69,0.03c0.16-0.11,0.25-0.29,0.25-0.48
			c0-0.18-0.08-0.34-0.23-0.45l-1.43-1.08c-0.11-0.08-0.15-0.23-0.09-0.35c0.08-0.17,0.29-0.21,0.42-0.1l1.44,1.08c0,0,0,0,0.01,0
			l0.21,0.16c0.25,0.18,0.62,0.15,0.81-0.08c0.1-0.12,0.14-0.27,0.12-0.42c-0.02-0.17-0.11-0.32-0.25-0.42l-3.89-2.93
			c-0.34-0.25-0.81-0.25-1.15,0l-1.1,0.82c-0.69,0.52-1.66,0.52-2.36-0.01c-0.2-0.15-0.31-0.38-0.31-0.62
			c0.01-0.24,0.14-0.45,0.32-0.6l1.88-1.41c0.15-0.11,0.03-0.34-0.15-0.28l-3.1,1.08c-0.27,0.1-0.56,0.15-0.85,0.16v-0.12l5.5-5.1
			c0.13-0.13,0.34-0.13,0.47,0l5.5,5.1V187.2z"/>
		<path class="st2" d="M471.42,179.54l-8.26-7.67l-2.17,2.02c0.13-0.13,0.34-0.13,0.47,0l5.5,5.1v0.03l-0.28,0.05
			c-0.5,0.09-1.01,0.04-1.49-0.14l-2.91-1.12c-0.53-0.21-1.14-0.12-1.59,0.22l-2.67,2.01c-0.05,0.03-0.08,0.09-0.08,0.15
			c0,0.06,0.03,0.12,0.08,0.16c0.49,0.37,1.19,0.37,1.68,0l1.1-0.82c0.54-0.4,1.29-0.4,1.82,0l3.89,2.92
			c0.23,0.18,0.4,0.43,0.45,0.72v4.04c0,0.4-0.32,0.71-0.71,0.71h-4.19l-2.05,1.9h7.12c1.02,0,1.84-0.82,1.84-1.84v-6.35h2.47
			c0.18,0,0.32-0.14,0.32-0.31v-1.02C471.75,180.01,471.63,179.73,471.42,179.54z"/>
		<path class="st0" d="M471.18,199.7c1.1-0.75,2.1-1.62,3.03-2.57C473.23,198.02,472.23,198.87,471.18,199.7z M471.18,199.7
			c1.1-0.75,2.1-1.62,3.03-2.57C473.23,198.02,472.23,198.87,471.18,199.7z M471.18,199.7c1.1-0.75,2.1-1.62,3.03-2.57
			C473.23,198.02,472.23,198.87,471.18,199.7z M471.18,199.7c1.1-0.75,2.1-1.62,3.03-2.57C473.23,198.02,472.23,198.87,471.18,199.7
			z M471.18,199.7c1.1-0.75,2.1-1.62,3.03-2.57C473.23,198.02,472.23,198.87,471.18,199.7z M499.04,167.95
			c0.69-2.15,1.19-4.45,0.85-6.7c-0.33-2.25-1.61-4.46-3.67-5.42c-1.68-0.78-3.63-0.67-5.46-0.34c-5.29,0.97-10.19,3.75-13.84,7.68
			c-0.01,0.05-0.01,0.09-0.01,0.13c-0.79,0.45-0.46,0.42-1.09,1.06c1.83-1.29,3.85-2.27,6-2.91c1.94-0.59,4.29-0.79,5.79,0.58
			c1.2,1.1,1.43,2.83,1.3,4.52c-0.38-0.42-0.88-0.69-1.45-0.81c-0.04-0.7-0.25-1.38-0.71-1.95c-0.85-1.01-2.35-1.33-3.67-1.12
			c-1.33,0.21-2.53,0.86-3.69,1.51c1.17-0.54,2.59,0.35,3.09,1.51h-35.11c-1.52,0-2.75,1.23-2.75,2.74v20.5
			c-2.19,2.34-4.05,4.48-5.48,6.91c-2.03,3.45-7.36,14.25-2.65,15.97c0.65,0.24,1.32,0.36,2.02,0.41c5.19,0.38,10.33-1.12,14.94-3.4
			h36.48c1.36,0,2.69-0.4,3.83-1.14H455.6c0.31-0.17,0.62-0.35,0.91-0.53h37.32c1.06,0,1.68-1.42,1.04-2.43l-6.08-9.79
			c0.53-0.51,0.85-1.21,0.85-1.99v-15.9c0.59-1.17,1.1-2.36,1.54-3.59c1.47-4.12,2.02-8.66,0.89-12.88
			c3.01,2.16,4.23,6.29,3.95,9.99h0.01c-0.17,2.23-0.68,4.03-1.78,6.77C496.34,174.47,497.95,171.31,499.04,167.95z M487.07,168.54
			c0.01-0.04,0.03-0.08,0.04-0.12c0.31,0.36,0.5,0.82,0.5,1.34v3.19c-1.87,6.49-5.13,12.59-8.86,18.26
			c-0.37,0.57-0.74,1.13-1.13,1.69h-4.3C479.55,185.75,484.6,177.57,487.07,168.54z M487.6,180.73v10.12c0,1.13-0.91,2.05-2.05,2.05
			h-7.14c2.3-2.55,4.42-5.25,6.41-8.04C485.78,183.51,486.73,182.14,487.6,180.73z M446.51,169.75c0-1.13,0.91-2.05,2.05-2.05h34.11
			c-0.07,0.69-0.26,1.38-0.49,2.05c-2.74,8.59-7.66,16.35-13.79,23.14h-19.84c-1.13,0-2.05-0.91-2.05-2.05V169.75z M449.51,207.68
			h-8.99c0.91,0.61,1.96,0.97,3.05,1.09c-1.08,0.07-2.16,0.09-3.25,0.09c-5.53-0.04-0.28-13.69,4.28-19.01v3.1
			c0,0.77,0.32,1.48,0.84,1.99l-6.08,9.79c-0.63,1.01-0.02,2.44,1.04,2.44h10.39C450.37,207.36,449.95,207.53,449.51,207.68z
			 M455.2,204.67h-10.82c-0.79,0-1.26-1.07-0.78-1.84h0.01l3.92-6.32c0.22-0.36,0.54-0.65,0.91-0.82h17.3
			c-1.88,1.9-3.85,3.71-5.89,5.43C458.35,202.38,456.82,203.59,455.2,204.67z M490.53,202.84c0.47,0.76,0.01,1.84-0.79,1.84h-29.38
			c4.82-3.39,8.53-7.02,10.32-8.9c0.03-0.04,0.06-0.06,0.08-0.09h4.74c-0.42,0.5-0.83,0.97-1.29,1.44c0.52-0.47,1.02-0.95,1.51-1.44
			h9.97c0.37,0.18,0.68,0.47,0.9,0.82h0.01L490.53,202.84z M474.21,197.13c-0.98,0.89-1.98,1.75-3.03,2.57
			C472.28,198.94,473.29,198.08,474.21,197.13z M471.18,199.7c1.1-0.75,2.1-1.62,3.03-2.57
			C473.23,198.02,472.23,198.87,471.18,199.7z M471.18,199.7c1.1-0.75,2.1-1.62,3.03-2.57C473.23,198.02,472.23,198.87,471.18,199.7
			z M471.18,199.7c1.1-0.75,2.1-1.62,3.03-2.57C473.23,198.02,472.23,198.87,471.18,199.7z M436.19,197.66
			c2.48-3.8,5.07-7.59,8.41-10.68v-3C441.01,187.94,438.08,192.66,436.19,197.66z M434.49,215.3L434.49,215.3
			c-3.42-0.93-2.07-6.75-1.71-8c0.26-0.9,0.43-1.13,0.91-2.63c-1.73,3.01-2.47,6.67-2.22,10.12c0.05,0.77,0.19,1.63,0.79,2.11
			c0.47,0.39,1.12,0.46,1.74,0.48c3.23,0.09,6.37-0.9,9.39-2.01C440.43,215.95,437.4,216.11,434.49,215.3z"/>
		<path class="st3" d="M223.89,41.99c-1.64,8.31-4.94,14.25-7.17,17.64c-0.28,0.44-0.58,0.86-0.89,1.28
			c-0.31,0.42-0.62,0.85-0.92,1.26c-0.63,0.82-1.28,1.63-1.96,2.41c-0.68,0.78-1.39,1.55-2.1,2.3c-0.69,0.72-1.4,1.4-2.12,2.04
			c-7.09,6.39-14.32,9.16-16.87,10.1c-6.63,2.44-12.53,3.05-16.56,3.16c-0.27,0-0.54,0.01-0.8,0.01h-63.76
			c-1.83,0-3.63,0.27-5.39,0.8c-1.76,0.53-3.4,1.3-4.93,2.31c-1.54,1-2.89,2.22-4.07,3.63c-1.17,1.4-2.12,2.95-2.84,4.63l-8.48,19.9
			h102.5c-0.95,2.22-2.05,4.36-3.32,6.43c-1.26,2.07-2.67,4.03-4.21,5.88c-1.55,1.86-3.23,3.59-5.03,5.21
			c-1.81,1.6-3.72,3.08-5.73,4.41c-2.01,1.33-4.12,2.51-6.31,3.54c-2.19,1.03-4.44,1.89-6.76,2.58c-2.31,0.69-4.67,1.22-7.06,1.57
			c-2.4,0.36-4.8,0.53-7.22,0.53H85.46c-1.98,0-3.9,0.3-5.8,0.86c-1.89,0.56-3.66,1.4-5.31,2.49c-1.64,1.08-3.1,2.39-4.36,3.91
			c-1.27,1.5-2.3,3.17-3.07,4.99l-23.2,54.36H0l20.45-47.89l24.45-57.27l10.82-25.31c1.18-2.78,2.57-5.47,4.14-8.06
			c1.59-2.58,3.35-5.03,5.3-7.35c1.94-2.32,4.03-4.5,6.29-6.52c2.26-2.03,4.66-3.86,7.18-5.53c2.53-1.67,5.17-3.14,7.92-4.43
			c2.73-1.3,5.56-2.36,8.45-3.23c2.91-0.87,5.86-1.53,8.85-1.96c3-0.44,6-0.65,9.04-0.65H223.89z"/>
	</g>
</g>
<g id="Layer_2">
</g>
</svg>
